<svg id="Capa_2" data-name="Capa 2" xmlns="http://www.w3.org/2000/svg" viewBox="0 0 260.66 177.66"><defs><style>.cls-1{fill:#fff;}</style></defs><title>pawyBuddyLogo</title><path d="M450.53,359.83v10.74c-1.23,3-2.08,6.29-3.74,9.06-5.55,9.29-14.28,14.73-23.88,18.78,3.62,2.1,7.86,3.57,10.74,6.41,10.79,10.66,17.41,23.42,14.41,39-2.6,13.48-10.64,24.23-23.89,27.84-12.35,3.36-25.56,4.46-38.44,4.77-19,.44-37.94-.69-56.91-1.18-4.37-.11-8.05-4.14-8.06-8.68,0-4,3.89-7.63,8.28-7.75,6.85-.19,13.71-.37,20.57-.49,11.78-.21,23.55-.36,35.32-.58,10.86-.2,21.33-2,30-9.13,4.58-3.77,8.37-8.4,6.89-15.07a32.1,32.1,0,0,0-2.28-6.2c-1.2-2.66-1.95-6-4-7.72-6.43-5.35-14.36-7.54-22.45-9.28-6.32-1.36-12.73-2.73-18.7-5.1-1.55-.62-1.91-5-2.09-7.69,0-.59,2.92-1.76,4.61-2,8.15-1.29,16.38-2.15,24.5-3.63,3.38-.61,6.54-2.43,9.83-3.62,3.47-1.25,7.46-1.7,10.37-3.73,6.66-4.63,12-10.72,13.29-19.09,1.95-13.06-3.16-23.39-16.5-27.78-4.65-1.53-9.65-2-12.76-6.57-.94-1.37-2.49-3.31-3.71-3.28a10.19,10.19,0,0,0-6.55,2.3c-1.28,1.22-.48,2.1-2.31,3.31a13.36,13.36,0,0,1-8.06,2.2c-6.63-.62-14.33,2.92-19.44-4.65-2.12-3.14-5.36-2.91-8-.69a84.69,84.69,0,0,0-7.56,7.82,1.79,1.79,0,0,0-.05,1.59c3.5,7.32,8.28,14.29,10.3,22,3.29,12.51-1.24,23.92-9.31,33.63A47.27,47.27,0,0,1,339,405.78c-4.5,2.65-9.9,3.8-14.93,5.54-3.56,1.24-7.84.14-10.21,4.87-2.07,4.15-3.48,7.94-2.91,12.68.69,5.9.28,11.93,1.05,17.82.87,6.68-.35,12.67-4.41,17.91-6.08,7.86-14.07,10.52-24,9.17-5.16-.7-10.55.6-15.83.53-14.86-.18-29.72-.46-44.58-1-4.86-.17-10.24-.12-14.42-2.16-10-4.87-14.08-14.88-16.84-24.74-3.8-13.59-1.18-27.23,5.17-39.41,6.67-12.8,14.92-24.8,22.86-36.9,5-7.61,7.52-15.53,6.07-24.64-.41.08-.63.05-.67.13-.45.77-.8,1.59-1.29,2.33-3,4.47-7.21,6.81-12.6,6.39-5-.38-9.32-2.09-11.17-7.32-2.47-7-2.61-13.86,2.42-19.74,6.42-7.51,15.23-9.7,24.26-7.29,20,5.37,24,21.24,21.13,37.26-2.11,12-7.72,22.92-15.09,32.73-8.59,11.44-18.6,22.05-19.46,37.56-.39,6.83,0,17.64,7.12,21.13a9,9,0,0,0,2,.48c-.06-.68-.07-1.36-.19-2-.77-4.52-2.39-9.06-2.19-13.53.73-16.63,11.14-28.75,20.14-41.53,3.32-4.71,6.64-9.67,8.64-15a141.62,141.62,0,0,0,5.73-21.74c1.58-7.8,2.25-15.79,3.78-23.61.73-3.76,1.45-9,6.57-8.68,5.76.32,11.45,2.23,17.13,3.64,2.34.57,4.56,2.34,6.84,2.35,7.82,0,15.64-.69,23.46-.76,3,0,5.12-.54,6.81-3.18a58.23,58.23,0,0,1,5.61-7.15c2.88-3.25,7.1-4,10.23-1.81,3.7,2.58,6.33,6.71,9.27,10l1.38-3.19c5.11-11.65,17.45-13.83,24.71-3.58,3.79,5.35,7.74,5.22,13,5,3.53-.13,3.25-2,3.45-4.18.44-4.88,2.33-8.81,7.59-9.9,7-1.45,11.2,3,15.24,7.52,2,2.22,3.28,5.47,5.69,6.73,5.52,2.91,12.13,4,17.17,7.5s9.22,8.45,12.55,13.57C448,349.7,448.85,355,450.53,359.83Zm-146.26-.63c-.59-6.37-4-9.52-10.49-8-2.21.53-4.83,4.66-5,7.3a8.17,8.17,0,0,0,8.87,8.86C302.19,367,304.7,363.85,304.27,359.2Zm40.65-6.48c0-4.21-4.26-9-8.21-9.08-2.73-.09-6.42,4.85-6.57,8.78a8.16,8.16,0,0,0,8.29,8.29C343.24,360.45,344.88,357.08,344.92,352.72Z" transform="translate(-189.87 -306.13)"/><path class="cls-1" d="M450.53,359.83c-1.68-4.81-2.56-10.13-5.26-14.27-3.33-5.12-7.57-10.14-12.55-13.57s-11.65-4.59-17.17-7.5c-2.41-1.26-3.73-4.51-5.69-6.73-4-4.56-8.28-9-15.24-7.52-5.26,1.09-7.15,5-7.59,9.9-.2,2.22.08,4.05-3.45,4.18-5.26.19-9.21.32-13-5-7.26-10.25-19.6-8.07-24.71,3.58l-1.38,3.19c-2.94-3.28-5.57-7.41-9.27-10-3.13-2.18-7.35-1.44-10.23,1.81a58.23,58.23,0,0,0-5.61,7.15c-1.69,2.64-3.84,3.16-6.81,3.18-7.82.07-15.64.77-23.46.76-2.28,0-4.5-1.78-6.84-2.35-5.68-1.41-11.37-3.32-17.13-3.64-5.12-.29-5.84,4.92-6.57,8.68-1.53,7.82-2.2,15.81-3.78,23.61A141.62,141.62,0,0,1,249.06,377c-2,5.34-5.32,10.3-8.64,15-9,12.78-19.41,24.9-20.14,41.53-.2,4.47,1.42,9,2.19,13.53.12.67.13,1.35.19,2a9,9,0,0,1-2-.48c-7.13-3.49-7.51-14.3-7.12-21.13.86-15.51,10.87-26.12,19.46-37.56,7.37-9.81,13-20.75,15.09-32.73C251,341.19,247,325.32,227,320c-9-2.41-17.84-.22-24.26,7.29-5,5.88-4.89,12.78-2.42,19.74,1.85,5.23,6.2,6.94,11.17,7.32,5.39.42,9.6-1.92,12.6-6.39.49-.74.84-1.56,1.29-2.33,0-.08.26-.05.67-.13,1.45,9.11-1.08,17-6.07,24.64-7.94,12.1-16.19,24.1-22.86,36.9-6.35,12.18-9,25.82-5.17,39.41,2.76,9.86,6.83,19.87,16.84,24.74,4.18,2,9.56,2,14.42,2.16,14.86.54,29.72.82,44.58,1,5.28.07,10.67-1.23,15.83-.53,9.92,1.35,17.91-1.31,24-9.17,4.06-5.24,5.28-11.23,4.41-17.91-.77-5.89-.36-11.92-1.05-17.82-.57-4.74.84-8.53,2.91-12.68,2.37-4.73,6.65-3.63,10.21-4.87,5-1.74,10.43-2.89,14.93-5.54a47.27,47.27,0,0,0,11.9-10.46c8.07-9.71,12.6-21.12,9.31-33.63-2-7.7-6.8-14.67-10.3-22a1.79,1.79,0,0,1,.05-1.59,84.69,84.69,0,0,1,7.56-7.82c2.64-2.22,5.88-2.45,8,.69,5.11,7.57,12.81,4,19.44,4.65,2.62.24,5.51-1.09,8.06-2.2,1.05-.46,1.69-2.26,2.31-3.31,1.26-2.1,4-5,6.24-5.09,1.22,0,3.05,2.93,4,6.07,3.11,4.55,8.11,5,12.76,6.57,13.34,4.39,18.45,14.72,16.5,27.78-1.26,8.37-6.63,14.46-13.29,19.09-2.91,2-6.9,2.48-10.37,3.73-3.29,1.19-6.45,3-9.83,3.62-8.12,1.48-16.35,2.34-24.5,3.63-1.69.27-4.65,1.44-4.61,2,.18,2.7.54,7.07,2.09,7.69,6,2.37,12.38,3.74,18.7,5.1,8.09,1.74,16,3.93,22.45,9.28,2.06,1.72,2.81,5.06,4,7.72a32.1,32.1,0,0,1,2.28,6.2c1.48,6.67-2.31,11.3-6.89,15.07-8.64,7.13-19.11,8.93-30,9.13-11.77.22-23.54.37-35.32.58-6.86.12-13.72.3-20.57.49-4.39.12-8.29,3.79-8.28,7.75,0,4.54,3.69,8.57,8.06,8.68,19,.49,38,1.62,56.91,1.18,12.88-.31,26.09-1.41,38.44-4.77,13.25-3.61,21.29-14.36,23.89-27.84,3-15.57-3.62-28.33-14.41-39-2.88-2.84-7.12-4.31-10.74-6.41,9.6-4.05,18.33-9.49,23.88-18.78,1.66-2.77,2.51-6,3.74-9.06q0,55.73-.08,111.45a2.47,2.47,0,0,1-1.71,1.71q-128.55.12-257.09,0a2.47,2.47,0,0,1-1.72-1.71q-.12-87.06,0-174.11a2.48,2.48,0,0,1,1.72-1.72q128.53-.12,257.09,0a2.49,2.49,0,0,1,1.71,1.72C450.55,325.21,450.53,342.52,450.53,359.83Zm-80.52-3c-.08,4.22,3.62,7.69,8.31,7.8,4.86.12,9.46-4.31,9.39-9,0-3.7-5-7.59-9.8-7.76C373.54,347.69,370.11,351.6,370,356.83Zm51.37-3.67a7.11,7.11,0,0,0-6.82-7.49c-5.68-.44-9.22,2.3-9.61,7.42s2.68,8.7,8,9.21C417.39,362.73,421,358.86,421.38,353.16Z" transform="translate(-189.87 -306.13)"/><path class="cls-1" d="M304.27,359.2c.43,4.65-2.08,7.75-6.62,8.18a8.17,8.17,0,0,1-8.87-8.86c.17-2.64,2.79-6.77,5-7.3C300.26,349.68,303.68,352.83,304.27,359.2Z" transform="translate(-189.87 -306.13)"/><path class="cls-1" d="M344.92,352.72c0,4.36-1.68,7.73-6.49,8a8.16,8.16,0,0,1-8.29-8.29c.15-3.93,3.84-8.87,6.57-8.78C340.66,343.76,345,348.51,344.92,352.72Z" transform="translate(-189.87 -306.13)"/><path d="M370,356.83c.1-5.23,3.53-9.14,7.9-9,4.83.17,9.75,4.06,9.8,7.76.07,4.72-4.53,9.15-9.39,9C373.63,364.52,369.93,361.05,370,356.83Z" transform="translate(-189.87 -306.13)"/><path d="M421.38,353.16c-.42,5.7-4,9.57-8.43,9.14-5.32-.51-8.4-4.05-8-9.21s3.93-7.86,9.61-7.42A7.11,7.11,0,0,1,421.38,353.16Z" transform="translate(-189.87 -306.13)"/></svg>